<?xml version="1.0" encoding="UTF-8"?>
<svg width="18px" height="11px" viewBox="0 0 18 11" version="1.1" xmlns="http://www.w3.org/2000/svg" xmlns:xlink="http://www.w3.org/1999/xlink">
    <title>9115E35B-C953-4B90-9C1B-2D8275737E9E</title>
    <g id="Page-1" stroke="none" stroke-width="1" fill="none" fill-rule="evenodd">
        <g id="v33" transform="translate(-119.000000, -263.000000)" fill="#2B8BD5" fill-rule="nonzero" stroke="#FFFFFF" stroke-width="0.726324028">
            <g id="code_black_24dp" transform="translate(120.000000, 264.000000)">
                <path d="M5.24497782,7.63813143 L1.98904253,4.5 L5.24497782,1.36186857 C5.57057135,1.04805543 5.57057135,0.549173 5.24497782,0.235359857 C4.91938429,-0.0784532857 4.40177407,-0.0784532857 4.07618054,0.235359857 L0.244195147,3.92869915 C-0.0813983825,4.24251229 -0.0813983825,4.74944122 0.244195147,5.06325436 L4.07618054,8.76464014 C4.40177407,9.07845329 4.91938429,9.07845329 5.24497782,8.76464014 C5.57057135,8.450827 5.57057135,7.95194457 5.24497782,7.63813143 L5.24497782,7.63813143 Z M10.7550222,7.63813143 L14.0109575,4.5 L10.7550222,1.36186857 C10.4294286,1.04805543 10.4294286,0.549173 10.7550222,0.235359857 C11.0806157,-0.0784532857 11.5982259,-0.0784532857 11.9238195,0.235359857 L15.7558049,3.92869915 C16.0813984,4.24251229 16.0813984,4.74944122 15.7558049,5.06325436 L11.9238195,8.76464014 C11.5982259,9.07845329 11.0806157,9.07845329 10.7550222,8.76464014 C10.4294286,8.450827 10.4294286,7.95194457 10.7550222,7.63813143 L10.7550222,7.63813143 Z" id="Shape"></path>
            </g>
        </g>
    </g>
</svg>