<?xml version="1.0" encoding="UTF-8"?>
<svg width="20px" height="20px" viewBox="0 0 20 20" version="1.1" xmlns="http://www.w3.org/2000/svg" xmlns:xlink="http://www.w3.org/1999/xlink">
    <title>FC02A8C6-F4D7-4239-93F2-439151824182</title>
    <g id="Page-1" stroke="none" stroke-width="1" fill="none" fill-rule="evenodd">
        <g id="v_3.4" transform="translate(-359.000000, -577.000000)">
            <g id="Group-14-Copy" transform="translate(20.000000, 563.000000)">
                <g id="article_black_24dp-(4)" transform="translate(339.000000, 14.000000)">
                    <polygon id="Path" points="0 0 20 0 20 20 0 20"></polygon>
                    <path d="M15.8333333,2.5 L4.16666667,2.5 C3.25,2.5 2.5,3.25 2.5,4.16666667 L2.5,15.8333333 C2.5,16.75 3.25,17.5 4.16666667,17.5 L15.8333333,17.5 C16.75,17.5 17.5,16.75 17.5,15.8333333 L17.5,4.16666667 C17.5,3.25 16.75,2.5 15.8333333,2+
.5 Z M11.6666667,14.1666667 L5.83333333,14.1666667 L5.83333333,12.5 L11.6666667,12.5 L11.6666667,14.1666667 Z M14.1666667,10.8333333 L5.83333333,10.8333333 L5.83333333,9.16666667 L14.1666667,9.16666667 L14.1666667,10.8333333 Z M14.1666667,7.5 L5.83333333+
,7.5 L5.83333333,5.83333333 L14.1666667,5.83333333 L14.1666667,7.5 Z" id="Shape" fill="#505050" fill-rule="nonzero"></path>
                </g>
            </g>
        </g>
    </g>
</svg>