<?xml version="1.0" encoding="UTF-8"?>
<svg width="15px" height="15px" viewBox="0 0 15 15" version="1.1" xmlns="http://www.w3.org/2000/svg" xmlns:xlink="http://www.w3.org/1999/xlink">
    <title>776D88FC-8387-4C77-9D4D-EDC6C70EA092@2x</title>
    <g id="Page-1" stroke="none" stroke-width="1" fill="none" fill-rule="evenodd">
        <g id="v_3.4" transform="translate(-366.000000, -693.000000)" fill="#505050" fill-rule="nonzero">
            <g id="Group-14-Copy" transform="translate(20.000000, 563.000000)">
                <g id="Group-11" transform="translate(0.000000, 114.000000)">
                    <path d="M361,29.3333333 L361,17.6666667 C361,16.75 360.25,16 359.333333,16 L347.666667,16 C346.75,16 346,16.75 346,17.6666667 L346,29.3333333 C346,30.25 346.75,31 347.666667,31 L359.333333,31 C360.25,31 361,30.25 361,29.3333333 Z M350.916667,25.15 L352.666667,27.2583333 L355.25,23.9333333 C355.416667,23.7166667 355.75,23.7166667 355.916667,23.9416667 L358.841667,27.8416667 C359.05,28.1166667 358.85,28.5083333 358.508333,28.5083333 L348.516667,28.5083333 C348.166667,28.5083333 347.975,28.1083333 348.191667,27.8333333 L350.266667,25.1666667 C350.425,24.95 350.741667,24.9416667 350.916667,25.15 Z" id="Shape"></path>
                </g>
            </g>
        </g>
    </g>
</svg>