<?xml version="1.0" encoding="UTF-8"?>
<svg width="18px" height="18px" viewBox="0 0 18 18" version="1.1" xmlns="http://www.w3.org/2000/svg" xmlns:xlink="http://www.w3.org/1999/xlink">
    <title>E8C66AAD-0071-469B-A439-037BBE437006</title>
    <g id="Page-1" stroke="none" stroke-width="1" fill="none" fill-rule="evenodd">
        <g id="v_3.1" transform="translate(-359.000000, -149.000000)" fill="#FFFFFF" fill-rule="nonzero">
            <g id="Group-3" transform="translate(0.000000, -50.000000)">
                <g id="Group-5" transform="translate(22.000000, 184.000000)">
                    <path d="M344,15 C347.865993,15 351,18.1340068 351,22 C351,23.3897697 350.594992,24.6849448 349.896566,25.7739361 L354.073809,29.9524886 C354.659595,30.5382751 354.659595,31.4880225 354.073809,32.073809 C353.488023,32.6595954 352.538275,32.6595954 351.952489,32.073809 L351.952489,32.073809 L347.773936,27.8965656 C346.684945,28.5949921 345.38977,29 344,29 C340.134007,29 337,25.8659932 337,22 C337,18.1340068 340.134007,15 344,15 Z M344,18 C341.790861,18 340,19.790861 340,22 C340,24.209139 341.790861,26 344,26 C346.209139,26 348,24.209139 348,22 C348,19.790861 346.209139,18 344,18 Z" id="Mask"></path>
                </g>
            </g>
        </g>
    </g>
</svg>