<?xml version="1.0" encoding="UTF-8"?>
<svg width="24px" height="24px" viewBox="0 0 24 24" version="1.1" xmlns="http://www.w3.org/2000/svg" xmlns:xlink="http://www.w3.org/1999/xlink">
    <title>CD148404-6956-4110-BFE2-2AF53E209F7B</title>
    <defs>
        <linearGradient x1="36.1743518%" y1="-6.15971883%" x2="63.6104039%" y2="105.837561%" id="linearGradient-1">
            <stop stop-color="#4369E0" offset="0%"></stop>
            <stop stop-color="#378FDE" offset="100%"></stop>
        </linearGradient>
        <linearGradient x1="-5.30259269%" y1="21.3470822%" x2="104.441616%" y2="78.4885513%" id="linearGradient-2">
            <stop stop-color="#4369E0" offset="0%"></stop>
            <stop stop-color="#378FDE" offset="100%"></stop>
        </linearGradient>
    </defs>
    <g id="Page-1" stroke="none" stroke-width="1" fill="none" fill-rule="evenodd">
        <g id="v_3.3" transform="translate(-357.000000, -819.000000)">
            <g id="Group-8" transform="translate(344.000000, 806.000000)">
                <g id="mic_black_24dp" transform="translate(13.000000, 13.000000)">
                    <g id="Group">
                        <rect id="Rectangle0" x="0" y="0" width="24" height="24"></rect>
                        <rect id="Rectangle1" x="0" y="0" width="24" height="24"></rect>
                        <rect id="Rectangle2" x="0" y="0" width="24" height="24"></rect>
                    </g>
                    <g id="Group1" transform="translate(5.000000, 2.000000)" fill-rule="nonzero">
                        <path d="M7,12 C8.66,12 10,10.66 10,9 L10,3 C10,1.34 8.66,0 7,0 C5.34,0 4,1.34 4,3 L4,9 C4,10.66 5.34,12 7,12 Z" id="Path1" fill="url(#linearGradient-1)"></path>
                        <path d="M12,9 C12,11.76 9.76,14 7,14 C4.24,14 2,11.76 2,9 L0,9 C0,12.53 2.61,15.43 6,15.92 L6,19 L8,19 L8,15.92 C11.39,15.43 14,12.53 14,9 L12,9 Z" id="Path" fill="url(#linearGradient-2)"></path>
                    </g>
                </g>
            </g>
        </g>
    </g>
</svg>