<?xml version="1.0" encoding="UTF-8"?>
<svg width="20px" height="20px" viewBox="0 0 20 20" version="1.1" xmlns="http://www.w3.org/2000/svg" xmlns:xlink="http://www.w3.org/1999/xlink">
    <title>B84176C9-8B2A-4EC3-9799-9DF2B014C219</title>
    <g id="Page-1" stroke="none" stroke-width="1" fill="none" fill-rule="evenodd">
        <g id="v_3.4" transform="translate(-363.000000, -634.000000)">
            <g id="Group-14-Copy" transform="translate(20.000000, 563.000000)">
                <g id="Group-10" transform="translate(0.000000, 57.000000)">
                    <g id="music_note_black_24dp" transform="translate(343.000000, 14.000000)">
                        <polygon id="Path" points="0 0 20 0 20 20 0 20"></polygon>
                        <path d="M10,4.16666667 L10,11.2916667 C9.21666667,10.8416667 8.25,10.6666667 7.225,11.025 C6.10833333,11.425 5.25,12.4166667 5.05,13.5833333 C4.66666667,15.8666667 6.6,17.8166667 8.875,17.4583333 C10.5083333,17.2 11.6666667,15.7 +
11.6666667,14.0416667 L11.6666667,5.83333333 L13.3333333,5.83333333 C14.25,5.83333333 15,5.08333333 15,4.16666667 C15,3.25 14.25,2.5 13.3333333,2.5 L11.6666667,2.5 C10.75,2.5 10,3.25 10,4.16666667 Z" id="Path" fill="#505050" fill-rule="nonzero"></path>
                    </g>
                </g>
            </g>
        </g>
    </g>
</svg>