<?xml version="1.0" encoding="UTF-8"?>
<svg width="17px" height="16px" viewBox="0 0 17 16" version="1.1" xmlns="http://www.w3.org/2000/svg" xmlns:xlink="http://www.w3.org/1999/xlink">
    <title>8ED3CBFD-4A38-49CD-B03D-A6B7438965D0@2x</title>
    <defs>
        <linearGradient x1="-5.30259269%" y1="0.252982627%" x2="104.441616%" y2="99.4616454%" id="linearGradient-1">
            <stop stop-color="#4369E0" offset="0%"></stop>
            <stop stop-color="#378FDE" offset="100%"></stop>
        </linearGradient>
    </defs>
    <g id="Page-1" stroke="none" stroke-width="1" fill="none" fill-rule="evenodd" opacity="0.8">
        <g id="v_3.3" transform="translate(-274.000000, -208.000000)" fill="url(#linearGradient-1)" fill-rule="nonzero">
            <g id="Rectangle" transform="translate(20.000000, 148.000000)">
                <g id="Group-6" transform="translate(53.000000, 58.000000)">
                    <g id="Group-2" transform="translate(116.000000, 0.000000)">
                        <g id="noun_date_2149184" transform="translate(85.000000, 2.000000)">
                            <path d="M15.1506267,1.30316742 L13.8347272,1.30316742 L13.8347272,0.43438914 C13.8347272,0.195475113 13.642677,0 13.407949,0 C13.173221,0 12.9811708,0.195475113 12.9811708,0.43438914 L12.9811708,1.30316742 L4.26778217,1.30316742 L4.26778217,0.43438914 C4.26778217,0.195475113 4.07573197,0 3.84100396,0 C3.60627594,0 3.41422574,0.195475113 3.41422574,0.43438914 L3.41422574,1.30316742 L1.84937227,1.30316742 C0.828661038,1.30316742 0,2.13574661 0,3.17466063 L0,5.25972851 L0,6.12850679 L0,14.1176471 C0,15.1565611 0.828661038,16 1.84937227,16 L15.1506267,16 C16.1713379,16 17,15.1565611 17,14.1176471 L17,6.12850679 L17,5.25972851 L17,3.17466063 C17,2.13574661 16.1713379,1.30316742 15.1506267,1.30316742 Z M16.1464426,14.1176471 C16.1464426,14.6751131 15.7018819,15.1312217 15.1506267,15.1312217 L1.84937227,15.1312217 C1.30167356,15.1312217 0.853556434,14.6751131 0.853556434,14.1176471 L0.853556434,6.11764706 L16.1464426,6.11764706 L16.1464426,14.1176471 Z M0.853556434,5.24886878 L0.853556434,3.17466063 C0.853556434,2.61719457 1.29811708,2.1719457 1.84937227,2.1719457 L3.41422574,2.1719457 L3.41422574,2.81266968 C3.41422574,3.05158371 3.60627594,3.24705882 3.84100396,3.24705882 C4.07573197,3.24705882 4.26778217,3.05158371 4.26778217,2.81266968 L4.26778217,2.1719457 L12.9811708,2.1719457 L12.9811708,2.81266968 C12.9811708,3.05158371 13.173221,3.24705882 13.407949,3.24705882 C13.642677,3.24705882 13.8347272,3.05158371 13.8347272,2.81266968 L13.8347272,2.1719457 L15.1506267,2.1719457 C15.6983254,2.1719457 16.1464426,2.61719457 16.1464426,3.17466063 L16.1464426,5.24886878 L0.853556434,5.24886878 Z" id="Shape"></path>
                        </g>
                    </g>
                </g>
            </g>
        </g>
    </g>
</svg>