<?xml version="1.0" encoding="UTF-8"?>
<svg width="20px" height="20px" viewBox="0 0 20 20" version="1.1" xmlns="http://www.w3.org/2000/svg" xmlns:xlink="http://www.w3.org/1999/xlink">
    <title>A8DF4D82-AA47-4AD5-83CD-46A8F95FF486</title>
    <defs>
        <linearGradient x1="-5.30259269%" y1="-6.15971883%" x2="104.441616%" y2="105.837561%" id="linearGradient-1">
            <stop stop-color="#4369E0" offset="0%"></stop>
            <stop stop-color="#378FDE" offset="100%"></stop>
        </linearGradient>
    </defs>
    <g id="Page-1" stroke="none" stroke-width="1" fill="none" fill-rule="evenodd">
        <g id="v_3.4" transform="translate(-31.000000, -634.000000)">
            <g id="Group-14-Copy" transform="translate(20.000000, 563.000000)">
                <g id="Group-10" transform="translate(0.000000, 57.000000)">
                    <g id="play_circle_black_24dp" transform="translate(11.000000, 14.000000)">
                        <rect id="Rectangle" x="0" y="0" width="20" height="20"></rect>
                        <path d="M10,1.66666667 C5.4,1.66666667 1.66666667,5.4 1.66666667,10 C1.66666667,14.6 5.4,18.3333333 10,18.3333333 C14.6,18.3333333 18.3333333,14.6 18.3333333,10 C18.3333333,5.4 14.6,1.66666667 10,1.66666667 Z M10,16.6666667 C6.325,16.6666667 3.33333333,13.675 3.33333333,10 C3.33333333,6.325 6.325,3.33333333 10,3.33333333 C13.675,3.33333333 16.6666667,6.325 16.6666667,10 C16.6666667,13.675 13.675,16.6666667 10,16.6666667 Z M7.91666667,13.75 L13.75,10 L7.91666667,6.25 L7.91666667,13.75 Z" id="Shape" fill="url(#linearGradient-1)" fill-rule="nonzero"></path>
                    </g>
                </g>
            </g>
        </g>
    </g>
</svg>