<?xml version="1.0" encoding="UTF-8"?>
<svg width="25px" height="26px" viewBox="0 0 25 26" version="1.1" xmlns="http://www.w3.org/2000/svg" xmlns:xlink="http://www.w3.org/1999/xlink">
    <title>48906A76-00E2-4D40-A86B-10EF6035A037</title>
    <defs>
        <linearGradient x1="-5.30259269%" y1="-5.69518843%" x2="104.441616%" y2="105.375695%" id="linearGradient-1">
            <stop stop-color="#4369E0" offset="0%"></stop>
            <stop stop-color="#378FDE" offset="100%"></stop>
        </linearGradient>
    </defs>
    <g id="Page-1" stroke="none" stroke-width="1" fill="none" fill-rule="evenodd">
        <g id="v_3.3" transform="translate(-194.000000, -579.000000)" fill="url(#linearGradient-1)" fill-rule="nonzero">
            <g id="Group-14-Copy" transform="translate(20.000000, 563.000000)">
                <g id="add_black_24dp" transform="translate(174.000000, 16.720989)">
                    <path d="M23.2142857,14.2265088 L14.2857143,14.2265088 L14.2857143,23.1180768 C14.2857143,24.0961493 13.4821429,24.8963904 12.5,24.8963904 C11.5178571,24.8963904 10.7142857,24.0961493 10.7142857,23.1180768 L10.7142857,14.2265088 L1.78571429,14.2265088 C0.803571429,14.2265088 0,13.4262677 0,12.4481952 C0,11.4701227 0.803571429,10.6698816 1.78571429,10.6698816 L10.7142857,10.6698816 L10.7142857,1.7783136 C10.7142857,0.800241119 11.5178571,0 12.5,0 C13.4821429,0 14.2857143,0.800241119 14.2857143,1.7783136 L14.2857143,10.6698816 L23.2142857,10.6698816 C24.1964286,10.6698816 25,11.4701227 25,12.4481952 C25,13.4262677 24.1964286,14.2265088 23.2142857,14.2265088 Z" id="Path"></path>
                </g>
            </g>
        </g>
    </g>
</svg>