<?xml version="1.0" encoding="UTF-8"?>
<svg width="18px" height="18px" viewBox="0 0 18 18" version="1.1" xmlns="http://www.w3.org/2000/svg" xmlns:xlink="http://www.w3.org/1999/xlink">
    <title>58A8985A-4A8F-4E86-B556-688B6336D3E8</title>
    <defs>
        <linearGradient x1="-5.30259269%" y1="-6.15971883%" x2="104.441616%" y2="105.837561%" id="linearGradient-1">
            <stop stop-color="#4369E0" offset="0%"></stop>
            <stop stop-color="#378FDE" offset="100%"></stop>
        </linearGradient>
    </defs>
    <g id="Page-1" stroke="none" stroke-width="1" fill="none" fill-rule="evenodd" opacity="0.8">
        <g id="v_3.3" transform="translate(-119.000000, -207.000000)" fill="url(#linearGradient-1)" fill-rule="nonzero" stroke="#FFFFFF" stroke-width="0.677647059">
            <g id="schedule_black_24dp-(1)-copy" transform="translate(120.000000, 208.000000)">
                <path d="M7.992,0 C3.576,0 0,3.584 0,8 C0,12.416 3.576,16 7.992,16 C12.416,16 16,12.416 16,8 C16,3.584 12.416,0 7.992,0 Z M8,14.4 C4.464,14.4 1.6,11.536 1.6,8 C1.6,4.464 4.464,1.6 8,1.6 C11.536,1.6 14.4,4.464 14.4,8 C14.4,11.536 11.536,14+
.4 8,14.4 Z M7.824,4 L7.776,4 C7.456,4 7.2,4.256 7.2,4.576 L7.2,8.352 C7.2,8.632 7.344,8.896 7.592,9.04 L10.912,11.032 C11.184,11.192 11.536,11.112 11.696,10.84 C11.864,10.568 11.776,10.208 11.496,10.048 L8.4,8.208 L8.4,4.576 C8.4,4.256 8.144,4 7.824,4 L+
7.824,4 Z" id="Shape"></path>
            </g>
        </g>
    </g>
</svg>